<svg width="128" height="128" viewBox="0 0 128 128" fill="none" xmlns="http://www.w3.org/2000/svg">
<rect width="128" height="128" rx="32" fill="url(#paint0_radial_618_16961)"/>
<path d="M39.056 76.032C37.776 76.032 36.72 75.616 35.888 74.784C35.056 73.888 34.64 72.8 34.64 71.52V25.44C34.64 24.096 35.056 23.04 35.888 22.272C36.72 21.44 37.776 21.024 39.056 21.024C40.4 21.024 41.456 21.44 42.224 22.272C43.056 23.04 43.472 24.096 43.472 25.44V71.52C43.472 72.8 43.056 73.888 42.224 74.784C41.456 75.616 40.4 76.032 39.056 76.032ZM79.28 96.096C78 96.096 76.912 95.68 76.016 94.848C75.184 93.952 74.768 92.896 74.768 91.68V67.488C74.768 63.712 74.064 60.64 72.656 58.272C71.248 55.84 69.36 54.048 66.992 52.896C64.624 51.68 61.904 51.072 58.832 51.072C55.952 51.072 53.36 51.648 51.056 52.8C48.752 53.952 46.896 55.488 45.488 57.408C44.144 59.328 43.472 61.536 43.472 64.032H37.712C37.776 60 38.8 56.416 40.784 53.28C42.768 50.08 45.456 47.584 48.848 45.792C52.24 43.936 56.048 43.008 60.272 43.008C64.752 43.008 68.752 43.968 72.272 45.888C75.792 47.744 78.576 50.496 80.624 54.144C82.672 57.792 83.696 62.24 83.696 67.488V91.68C83.696 92.896 83.248 93.952 82.352 94.848C81.52 95.68 80.496 96.096 79.28 96.096ZM39.056 96.096C37.776 96.096 36.72 95.68 35.888 94.848C35.056 94.016 34.64 92.96 34.64 91.68V47.904C34.64 46.56 35.056 45.504 35.888 44.736C36.72 43.904 37.776 43.488 39.056 43.488C40.4 43.488 41.456 43.904 42.224 44.736C43.056 45.504 43.472 46.56 43.472 47.904V91.68C43.472 92.96 43.056 94.016 42.224 94.848C41.456 95.68 40.4 96.096 39.056 96.096Z" fill="#F4F4F5"/>
<path d="M92.7838 97.536C91.0558 97.536 89.5838 96.928 88.3678 95.712C87.1518 94.496 86.5438 93.024 86.5438 91.296C86.5438 89.568 87.1518 88.096 88.3678 86.88C89.6478 85.6 91.1198 84.96 92.7838 84.96C94.5118 84.96 95.9838 85.6 97.1998 86.88C98.4158 88.096 99.0238 89.568 99.0238 91.296C99.0238 92.96 98.4158 94.432 97.1998 95.712C95.9838 96.928 94.5118 97.536 92.7838 97.536Z" fill="#0EA5E9"/>
<defs>
<radialGradient id="paint0_radial_618_16961" cx="0" cy="0" r="1" gradientUnits="userSpaceOnUse" gradientTransform="translate(93 92) rotate(-134.091) scale(133.66)">
<stop stop-color="#18181B"/>
<stop offset="1" stop-color="#3F3F46"/>
</radialGradient>
</defs>
</svg>
