<svg width="256" height="48" viewBox="0 0 256 48" fill="none" xmlns="http://www.w3.org/2000/svg">
<path d="M3.34056 35.2286C2.47298 35.2286 1.74343 34.9525 1.1519 34.4004C0.599808 33.8089 0.323761 33.0794 0.323761 32.2118V3.81838C0.323761 2.91137 0.599808 2.18182 1.1519 1.62973C1.74343 1.07763 2.47298 0.801586 3.34056 0.801586C4.24757 0.801586 4.97712 1.07763 5.52922 1.62973C6.08131 2.18182 6.35736 2.91137 6.35736 3.81838V32.2118C6.35736 33.0794 6.08131 33.8089 5.52922 34.4004C4.97712 34.9525 4.24757 35.2286 3.34056 35.2286ZM27.6524 47.0592C26.7848 47.0592 26.0553 46.7831 25.4637 46.231C24.9117 45.6395 24.6356 44.9099 24.6356 44.0424V29.4907C24.6356 27.2429 24.2215 25.4092 23.3934 23.9895C22.5653 22.5699 21.4413 21.5248 20.0217 20.8544C18.6414 20.1446 17.0443 19.7897 15.2303 19.7897C13.574 19.7897 12.0755 20.1249 10.7347 20.7953C9.39387 21.4657 8.32912 22.3727 7.54041 23.5163C6.75171 24.6205 6.35736 25.9021 6.35736 27.3612H2.63072C2.63072 24.8768 3.22225 22.6684 4.40531 20.7361C5.6278 18.7643 7.28409 17.2067 9.37415 16.063C11.4642 14.9194 13.8106 14.3476 16.4133 14.3476C19.1344 14.3476 21.5597 14.9391 23.6892 16.1222C25.8581 17.2658 27.5538 18.9615 28.7763 21.2093C30.0382 23.4571 30.6692 26.2176 30.6692 29.4907V44.0424C30.6692 44.9099 30.3734 45.6395 29.7819 46.231C29.2298 46.7831 28.52 47.0592 27.6524 47.0592ZM3.34056 47.0592C2.47298 47.0592 1.74343 46.7831 1.1519 46.231C0.599808 45.6395 0.323761 44.9099 0.323761 44.0424V17.6602C0.323761 16.7531 0.599808 16.0236 1.1519 15.4715C1.74343 14.9194 2.47298 14.6434 3.34056 14.6434C4.24757 14.6434 4.97712 14.9194 5.52922 15.4715C6.08131 16.0236 6.35736 16.7531 6.35736 17.6602V44.0424C6.35736 44.9099 6.08131 45.6395 5.52922 46.231C4.97712 46.7831 4.24757 47.0592 3.34056 47.0592ZM52.9472 47.2366C49.6741 47.2366 46.7559 46.5465 44.1926 45.1663C41.6687 43.7466 39.6772 41.8143 38.2181 39.3693C36.7985 36.8849 36.0886 34.0455 36.0886 30.8513C36.0886 27.6176 36.759 24.7782 38.0998 22.3332C39.4801 19.8488 41.3729 17.9165 43.7785 16.5363C46.184 15.1166 48.9445 14.4068 52.0599 14.4068C55.1359 14.4068 57.778 15.0969 59.9864 16.4771C62.1948 17.8179 63.8708 19.6911 65.0144 22.0966C66.1974 24.4627 66.789 27.2035 66.789 30.3189C66.789 31.0682 66.5326 31.6991 66.02 32.2118C65.5073 32.685 64.8566 32.9216 64.0679 32.9216H40.2293V28.1894H63.8905L61.4652 29.8457C61.4258 27.8739 61.0314 26.119 60.2822 24.5811C59.5329 23.0036 58.4681 21.7614 57.0879 20.8544C55.7077 19.9474 54.0317 19.4939 52.0599 19.4939C49.8121 19.4939 47.8798 19.9868 46.2629 20.9727C44.6855 21.9586 43.4827 23.3191 42.6546 25.0543C41.8264 26.75 41.4124 28.6823 41.4124 30.8513C41.4124 33.0202 41.9053 34.9525 42.8912 36.6482C43.8771 38.344 45.2376 39.6848 46.9728 40.6706C48.7079 41.6565 50.6994 42.1495 52.9472 42.1495C54.1697 42.1495 55.4119 41.9326 56.6738 41.4988C57.9752 41.0256 59.0202 40.4932 59.8089 39.9017C60.4005 39.4679 61.0314 39.251 61.7018 39.251C62.4117 39.2115 63.0229 39.4087 63.5356 39.8425C64.206 40.434 64.5609 41.0847 64.6003 41.7945C64.6398 42.5044 64.3243 43.1156 63.6539 43.6283C62.3131 44.693 60.6371 45.5606 58.6259 46.231C56.6541 46.9014 54.7612 47.2366 52.9472 47.2366ZM75.1351 47C74.2675 47 73.5379 46.724 72.9464 46.1719C72.3943 45.5803 72.1183 44.8508 72.1183 43.9832V17.6602C72.1183 16.7531 72.3943 16.0236 72.9464 15.4715C73.5379 14.9194 74.2675 14.6434 75.1351 14.6434C76.0421 14.6434 76.7716 14.9194 77.3237 15.4715C77.8758 16.0236 78.1519 16.7531 78.1519 17.6602V43.9832C78.1519 44.8508 77.8758 45.5803 77.3237 46.1719C76.7716 46.724 76.0421 47 75.1351 47ZM75.1351 9.37876C74.0703 9.37876 73.1436 9.00412 72.3549 8.25485C71.6056 7.46615 71.231 6.53942 71.231 5.47467C71.231 4.40991 71.6056 3.5029 72.3549 2.75363C73.1436 1.96493 74.0703 1.57057 75.1351 1.57057C76.1998 1.57057 77.1068 1.96493 77.8561 2.75363C78.6448 3.5029 79.0392 4.40991 79.0392 5.47467C79.0392 6.53942 78.6448 7.46615 77.8561 8.25485C77.1068 9.00412 76.1998 9.37876 75.1351 9.37876ZM128.891 47.0592C128.023 47.0592 127.294 46.7831 126.702 46.231C126.15 45.6395 125.874 44.9099 125.874 44.0424V27.1246C125.874 24.6402 125.263 22.8065 124.04 21.6234C122.818 20.4009 121.221 19.7897 119.249 19.7897C117.198 19.7897 115.502 20.4995 114.162 21.9192C112.86 23.3388 112.21 25.1529 112.21 27.3612H107.3C107.3 24.7979 107.852 22.5501 108.956 20.6178C110.06 18.646 111.598 17.1081 113.57 16.0039C115.581 14.8997 117.869 14.3476 120.432 14.3476C122.68 14.3476 124.671 14.8405 126.406 15.8264C128.141 16.8123 129.482 18.2714 130.429 20.2037C131.415 22.0966 131.908 24.4036 131.908 27.1246V44.0424C131.908 44.9099 131.631 45.6395 131.079 46.231C130.527 46.7831 129.798 47.0592 128.891 47.0592ZM89.4358 47.0592C88.5682 47.0592 87.8386 46.7831 87.2471 46.231C86.695 45.6395 86.419 44.9099 86.419 44.0424V17.7193C86.419 16.8123 86.695 16.0828 87.2471 15.5307C87.8386 14.9786 88.5682 14.7025 89.4358 14.7025C90.3428 14.7025 91.0723 14.9786 91.6244 15.5307C92.1765 16.0828 92.4525 16.8123 92.4525 17.7193V44.0424C92.4525 44.9099 92.1765 45.6395 91.6244 46.231C91.0723 46.7831 90.3428 47.0592 89.4358 47.0592ZM109.193 47.0592C108.325 47.0592 107.596 46.7831 107.004 46.231C106.452 45.6395 106.176 44.9099 106.176 44.0424V27.1246C106.176 24.6402 105.565 22.8065 104.342 21.6234C103.12 20.4009 101.523 19.7897 99.5509 19.7897C97.5003 19.7897 95.8045 20.4995 94.4637 21.9192C93.1229 23.3388 92.4525 25.1529 92.4525 27.3612H88.7259C88.7259 24.7979 89.2386 22.5501 90.2639 20.6178C91.2892 18.646 92.7089 17.1081 94.5229 16.0039C96.3369 14.8997 98.4073 14.3476 100.734 14.3476C102.982 14.3476 104.973 14.8405 106.708 15.8264C108.444 16.8123 109.784 18.2714 110.731 20.2037C111.717 22.0966 112.21 24.4036 112.21 27.1246V44.0424C112.21 44.9099 111.934 45.6395 111.381 46.231C110.829 46.7831 110.1 47.0592 109.193 47.0592ZM141.992 35.2286C141.124 35.2286 140.395 34.9525 139.803 34.4004C139.251 33.8089 138.975 33.0794 138.975 32.2118V3.81838C138.975 2.91137 139.251 2.18182 139.803 1.62973C140.395 1.07763 141.124 0.801586 141.992 0.801586C142.899 0.801586 143.628 1.07763 144.18 1.62973C144.732 2.18182 145.009 2.91137 145.009 3.81838V32.2118C145.009 33.0794 144.732 33.8089 144.18 34.4004C143.628 34.9525 142.899 35.2286 141.992 35.2286ZM166.304 47.0592C165.436 47.0592 164.706 46.7831 164.115 46.231C163.563 45.6395 163.287 44.9099 163.287 44.0424V29.4907C163.287 27.2429 162.873 25.4092 162.045 23.9895C161.216 22.5699 160.092 21.5248 158.673 20.8544C157.293 20.1446 155.695 19.7897 153.881 19.7897C152.225 19.7897 150.727 20.1249 149.386 20.7953C148.045 21.4657 146.98 22.3727 146.192 23.5163C145.403 24.6205 145.009 25.9021 145.009 27.3612H141.282C141.282 24.8768 141.873 22.6684 143.056 20.7361C144.279 18.7643 145.935 17.2067 148.025 16.063C150.115 14.9194 152.462 14.3476 155.065 14.3476C157.786 14.3476 160.211 14.9391 162.34 16.1222C164.509 17.2658 166.205 18.9615 167.427 21.2093C168.689 23.4571 169.32 26.2176 169.32 29.4907V44.0424C169.32 44.9099 169.025 45.6395 168.433 46.231C167.881 46.7831 167.171 47.0592 166.304 47.0592ZM141.992 47.0592C141.124 47.0592 140.395 46.7831 139.803 46.231C139.251 45.6395 138.975 44.9099 138.975 44.0424V17.6602C138.975 16.7531 139.251 16.0236 139.803 15.4715C140.395 14.9194 141.124 14.6434 141.992 14.6434C142.899 14.6434 143.628 14.9194 144.18 15.4715C144.732 16.0236 145.009 16.7531 145.009 17.6602V44.0424C145.009 44.9099 144.732 45.6395 144.18 46.231C143.628 46.7831 142.899 47.0592 141.992 47.0592ZM190.001 47.2958C187.28 47.2958 184.835 46.724 182.666 45.5803C180.537 44.3973 178.841 42.6818 177.579 40.434C176.357 38.1862 175.745 35.4257 175.745 32.1526V17.601C175.745 16.7334 176.021 16.0236 176.574 15.4715C177.165 14.88 177.895 14.5842 178.762 14.5842C179.63 14.5842 180.34 14.88 180.892 15.4715C181.483 16.0236 181.779 16.7334 181.779 17.601V32.1526C181.779 34.361 182.193 36.1947 183.021 37.6538C183.849 39.0735 184.973 40.1383 186.393 40.8481C187.813 41.5185 189.41 41.8537 191.184 41.8537C192.88 41.8537 194.379 41.5185 195.68 40.8481C197.021 40.1777 198.085 39.2707 198.874 38.1271C199.663 36.9834 200.057 35.7018 200.057 34.2821H203.784C203.784 36.7271 203.173 38.9355 201.95 40.9073C200.767 42.879 199.13 44.4367 197.04 45.5803C194.99 46.724 192.643 47.2958 190.001 47.2958ZM203.074 47C202.206 47 201.477 46.724 200.885 46.1719C200.333 45.5803 200.057 44.8508 200.057 43.9832V17.601C200.057 16.694 200.333 15.9644 200.885 15.4124C201.477 14.8603 202.206 14.5842 203.074 14.5842C203.981 14.5842 204.711 14.8603 205.263 15.4124C205.815 15.9644 206.091 16.694 206.091 17.601V43.9832C206.091 44.8508 205.815 45.5803 205.263 46.1719C204.711 46.724 203.981 47 203.074 47ZM230.026 47.2366C226.951 47.2366 224.19 46.5268 221.745 45.1071C219.3 43.648 217.368 41.6762 215.948 39.1918C214.528 36.7074 213.799 33.9075 213.759 30.7921V3.81838C213.759 2.91137 214.035 2.18182 214.588 1.62973C215.179 1.07763 215.909 0.801586 216.776 0.801586C217.683 0.801586 218.413 1.07763 218.965 1.62973C219.517 2.18182 219.793 2.91137 219.793 3.81838V19.7897C221.173 18.1334 222.83 16.832 224.762 15.8856C226.734 14.8997 228.883 14.4068 231.21 14.4068C234.088 14.4068 236.671 15.1363 238.959 16.5954C241.246 18.0151 243.04 19.9671 244.341 22.4515C245.682 24.8965 246.353 27.6767 246.353 30.7921C246.353 33.9075 245.623 36.7074 244.164 39.1918C242.744 41.6762 240.812 43.648 238.367 45.1071C235.922 46.5268 233.142 47.2366 230.026 47.2366ZM230.026 41.9129C232.038 41.9129 233.832 41.4396 235.409 40.4932C236.987 39.5073 238.229 38.1665 239.136 36.4708C240.082 34.7751 240.556 32.8822 240.556 30.7921C240.556 28.6626 240.082 26.7697 239.136 25.1134C238.229 23.4571 236.987 22.1558 235.409 21.2093C233.832 20.2235 232.038 19.7305 230.026 19.7305C228.055 19.7305 226.26 20.2235 224.644 21.2093C223.066 22.1558 221.824 23.4571 220.917 25.1134C220.01 26.7697 219.556 28.6626 219.556 30.7921C219.556 32.8822 220.01 34.7751 220.917 36.4708C221.824 38.1665 223.066 39.5073 224.644 40.4932C226.26 41.4396 228.055 41.9129 230.026 41.9129Z" fill="#09090B"/>
<path d="M251.151 47.9464C250.047 47.9464 249.081 47.5521 248.253 46.7634C247.464 45.9352 247.07 44.9691 247.07 43.8649C247.07 42.7213 247.464 41.7551 248.253 40.9664C249.081 40.1383 250.047 39.7242 251.151 39.7242C252.295 39.7242 253.261 40.1383 254.05 40.9664C254.839 41.7551 255.233 42.7213 255.233 43.8649C255.233 44.9691 254.839 45.9352 254.05 46.7634C253.261 47.5521 252.295 47.9464 251.151 47.9464Z" fill="#0EA5E9"/>
</svg>
